<svg xmlns="http://www.w3.org/2000/svg" viewBox="0 0 2000 873.25" class="h-[1.625rem] xl:h-[2.125rem]"><path d="M1522.47 357.24a65.72 65.72 0 0148.88 18 80.73 80.73 0 0121.93 43.53H1451.7a84.81 84.81 0 0123.82-44.61 66 66 0 0147-16.9m130.8 29.28a135.12 135.12 0 00-27.18-46.5 131.7 131.7 0 00-44-31.66 144.25 144.25 0 00-59.63-11.76 151.66 151.66 0 00-57.06 10.33 124.22 124.22 0 00-44.27 30 136.7 136.7 0 00-28.54 48.22 196.7 196.7 0 00-10.06 65.45 196.55 196.55 0 0010.06 65.35 135.68 135.68 0 0028.54 48.11 123.62 123.62 0 0044.79 30 160.1 160.1 0 0058.75 10.33 155.92 155.92 0 0049.27-7.28 126.4 126.4 0 0038.1-19.93 124.68 124.68 0 0027.46-29.42 144.77 144.77 0 0017.34-35.84l.5-1.5h-71.58l-.35.48a102 102 0 01-23.88 23.62 63.23 63.23 0 01-36.3 9.23 68.67 68.67 0 01-52.18-20.45 82.9 82.9 0 01-21.53-52.18h208l.15-1c.36-2.24.72-4.82 1.09-7.79.39-2.6.75-5.56 1.12-8.9a100.86 100.86 0 00.58-11.26 169.46 169.46 0 00-9.23-55.62M1860 357.24a72 72 0 0128.69 5.74 65.39 65.39 0 0123.46 17.22 81.61 81.61 0 0115.9 29 133.3 133.3 0 015.73 41.34 133.58 133.58 0 01-5.73 41.33 82.27 82.27 0 01-15.9 29 65.21 65.21 0 01-23.46 17.22 74.64 74.64 0 01-57.41 0 65.34 65.34 0 01-23.44-17.22 82.65 82.65 0 01-15.9-29.06 133.62 133.62 0 01-5.75-41.34 133.59 133.59 0 015.75-41.33 82.32 82.32 0 0115.9-29 65.25 65.25 0 0123.44-17.23 72.24 72.24 0 0128.72-5.73m130.5 27.06a136.66 136.66 0 00-26.63-48.24 114.14 114.14 0 00-40.7-29.49 132.07 132.07 0 00-52.1-10.07 103.66 103.66 0 00-52 12.64 116.23 116.23 0 00-34.67 29h-1.27L1775 302.9l-.17-.91h-54.89V687.8h66.22V565.51h1a66.62 66.62 0 0011.51 12.73 95.94 95.94 0 0018.84 12.92 115 115 0 0024.39 9.59 112.12 112.12 0 0029.28 3.65 131.34 131.34 0 0052.1-10.11 113.71 113.71 0 0040.7-29.45 136.53 136.53 0 0026.6-48.23 211.48 211.48 0 009.42-66.1 211.51 211.51 0 00-9.53-66.19M436.64 0C195.48 0 0 195.48 0 436.63c0 241.16 195.5 436.63 436.64 436.62s436.61-195.49 436.61-436.62S677.78 0 436.64 0zm882.25 367.63a114.8 114.8 0 00-22.4-37.9 99.67 99.67 0 00-34.49-24.44 111.51 111.51 0 00-44.33-8.69 100.73 100.73 0 00-45.49 10.12 86.28 86.28 0 00-33 28.78h-1V215.88h-66.16v383h66.19v-175a77.27 77.27 0 014.37-26A63.2 63.2 0 011155 376.6a58.68 58.68 0 0120-14.16 63.65 63.65 0 0125.83-5.16 57.89 57.89 0 0143.3 17.1 67 67 0 0116.61 48.38v176.12H1327v-181.7a144.05 144.05 0 00-8.11-49.55z" fill="#002d6c"></path></svg>